<svg width="174" height="126" viewBox="0 0 174 126" fill="none" xmlns="http://www.w3.org/2000/svg">
<path fill-rule="evenodd" clip-rule="evenodd" d="M74.4277 23.4059C74.4277 21.4417 75.2087 19.558 76.5989 18.1691C77.9891 16.7803 79.8746 16 81.8406 16H126.318C128.284 16 130.169 16.7803 131.56 18.1691C132.95 19.558 133.731 21.4417 133.731 23.4059V41.9207H74.4277V23.4059ZM117.052 27.1089C116.56 27.1089 116.089 27.3039 115.741 27.6511C115.394 27.9984 115.199 28.4693 115.199 28.9603V32.6633C115.199 33.1543 115.394 33.6253 115.741 33.9725C116.089 34.3197 116.56 34.5148 117.052 34.5148H124.465C124.956 34.5148 125.428 34.3197 125.775 33.9725C126.123 33.6253 126.318 33.1543 126.318 32.6633V28.9603C126.318 28.4693 126.123 27.9984 125.775 27.6511C125.428 27.3039 124.956 27.1089 124.465 27.1089H117.052Z" fill="#FFC41E"/>
<path d="M74.4272 49.3267V53.0296C74.4272 54.9938 75.2082 56.8775 76.5984 58.2664C77.9886 59.6553 79.8741 60.4355 81.8401 60.4355H126.317C128.284 60.4355 130.169 59.6553 131.559 58.2664C132.949 56.8775 133.73 54.9938 133.73 53.0296V49.3267H74.4272Z" fill="#FFC41E"/>
<mask id="path-3-inside-1" fill="white">
<rect x="23" y="50.7285" width="20.1631" height="58.2713" rx="2"/>
</mask>
<rect x="23" y="50.7285" width="20.1631" height="58.2713" rx="2" stroke="#242424" stroke-width="10" mask="url(#path-3-inside-1)"/>
<path d="M49.5195 60.6233V99.2727C58.415 99.2727 61.1521 101.08 70.2756 101.651C101.359 111.43 107.918 108.055 123.047 99.2727C128.644 96.0236 137.739 88.9828 144.036 83.8129C152.49 75.4407 151.64 73.2289 149.742 71.3262C141.439 63.0017 132.544 82.6237 115.939 83.8129C103.153 84.7286 81.5432 82.6237 76.2059 82.6237" stroke="#242424" stroke-width="5"/>
<path d="M47.5581 60.6546C52.7674 60.2827 63.2213 58.7454 67.9038 60.6234C73.8341 63.0018 76.2973 68.2105 79.6703 69.3412C87.3663 71.9209 99.9469 71.4902 104.672 71.9209C111.195 72.5155 121.87 72.5154 121.277 81.4345C120.902 87.0629 89.2529 82.6237 76.7992 82.6237" stroke="#242424" stroke-width="5"/>
</svg>
