<svg width="174" height="126" viewBox="0 0 174 126" fill="none" xmlns="http://www.w3.org/2000/svg">
<mask id="path-1-inside-1" fill="white">
<path fill-rule="evenodd" clip-rule="evenodd" d="M63.3699 13H42.9559V31.967H24V52.3932H42.9559V71.3604H63.3699V52.3932H82.3257V31.967H63.3699V13Z"/>
</mask>
<path d="M42.9559 13V9H38.9559V13H42.9559ZM63.3699 13H67.3699V9H63.3699V13ZM42.9559 31.967V35.967H46.9559V31.967H42.9559ZM24 31.967V27.967H20V31.967H24ZM24 52.3932H20V56.3932H24V52.3932ZM42.9559 52.3932H46.9559V48.3932H42.9559V52.3932ZM42.9559 71.3604H38.9559V75.3604H42.9559V71.3604ZM63.3699 71.3604V75.3604H67.3699V71.3604H63.3699ZM63.3699 52.3932V48.3932H59.3699V52.3932H63.3699ZM82.3257 52.3932V56.3932H86.3257V52.3932H82.3257ZM82.3257 31.967H86.3257V27.967H82.3257V31.967ZM63.3699 31.967H59.3699V35.967H63.3699V31.967ZM42.9559 17H63.3699V9H42.9559V17ZM46.9559 31.967V13H38.9559V31.967H46.9559ZM24 35.967H42.9559V27.967H24V35.967ZM28 52.3932V31.967H20V52.3932H28ZM42.9559 48.3932H24V56.3932H42.9559V48.3932ZM46.9559 71.3604V52.3932H38.9559V71.3604H46.9559ZM63.3699 67.3604H42.9559V75.3604H63.3699V67.3604ZM59.3699 52.3932V71.3604H67.3699V52.3932H59.3699ZM82.3257 48.3932H63.3699V56.3932H82.3257V48.3932ZM78.3257 31.967V52.3932H86.3257V31.967H78.3257ZM63.3699 35.967H82.3257V27.967H63.3699V35.967ZM59.3699 13V31.967H67.3699V13H59.3699Z" fill="#FFC41E" mask="url(#path-1-inside-1)"/>
<path d="M83.7376 64.9967L109.451 73.9223V110.333C109.451 111.04 109.161 111.719 108.647 112.219C108.132 112.719 107.434 113 106.707 113H95.7315C95.0038 113 94.3059 112.719 93.7913 112.219C93.2767 111.719 92.9877 111.04 92.9877 110.333V91.6652H65.5495V110.333C65.5495 111.04 65.2604 111.719 64.7458 112.219C64.2313 112.719 63.5334 113 62.8057 113H51.8304C51.1027 113 50.4048 112.719 49.8902 112.219C49.3757 111.719 49.0866 111.04 49.0866 110.333V74.679C42.7141 72.4705 38.1113 66.6068 38.1113 59.663C38.1113 58.2484 38.6895 56.8918 39.7186 55.8915C40.7477 54.8912 42.1435 54.3293 43.599 54.3293C45.0544 54.3293 46.4502 54.8912 47.4793 55.8915C48.5084 56.8918 49.0866 58.2484 49.0866 59.663C49.0893 61.0768 49.6683 62.4319 50.6969 63.4316C51.7254 64.4312 53.1197 64.994 54.5742 64.9967H83.7376ZM125.913 46.3287V51.6624C125.913 54.4916 124.757 57.2049 122.699 59.2054C120.641 61.206 117.849 62.3298 114.938 62.3298H109.451V68.2602L87.5 60.6414V35.6614C87.5 33.2862 90.4531 32.0961 92.1834 33.7762L96.8616 38.3282H106.059C107.929 38.3282 110.131 39.6483 110.967 41.2767L112.194 43.6619H123.17C123.897 43.6619 124.595 43.9429 125.11 44.443C125.624 44.9431 125.913 45.6215 125.913 46.3287ZM106.707 46.3287C106.707 45.8013 106.546 45.2857 106.244 44.8471C105.943 44.4086 105.514 44.0667 105.013 43.8649C104.512 43.6631 103.96 43.6102 103.428 43.7131C102.895 43.816 102.406 44.07 102.023 44.443C101.639 44.816 101.378 45.2912 101.272 45.8085C101.166 46.3258 101.22 46.862 101.428 47.3493C101.636 47.8366 101.987 48.2531 102.439 48.5462C102.89 48.8392 103.42 48.9956 103.963 48.9956C104.691 48.9956 105.389 48.7146 105.903 48.2145C106.418 47.7144 106.707 47.036 106.707 46.3287Z" fill="#242424"/>
<path d="M151 96.5273C151 105.705 143.466 113 133.988 113H119.407C109.929 113 102.395 105.705 102.395 96.5273V89.4675H151V96.5273Z" fill="#FFC41E"/>
</svg>
