<svg width="174" height="126" viewBox="0 0 174 126" fill="none" xmlns="http://www.w3.org/2000/svg">
<path d="M73.0465 34.0604L95.7185 41.8854V73.8066C95.7185 74.4267 95.4636 75.0214 95.0099 75.4599C94.5562 75.8983 93.9409 76.1447 93.2992 76.1447H83.622C82.9803 76.1447 82.365 75.8983 81.9113 75.4599C81.4575 75.0214 81.2027 74.4267 81.2027 73.8066V57.4405H57.0095V73.8066C57.0095 74.4267 56.7546 75.0214 56.3009 75.4599C55.8472 75.8983 55.2319 76.1447 54.5902 76.1447H44.913C44.2713 76.1447 43.656 75.8983 43.2023 75.4599C42.7485 75.0214 42.4937 74.4267 42.4937 73.8066V42.5488C36.8748 40.6127 32.8164 35.4719 32.8164 29.3843C32.8164 28.1442 33.3262 26.9548 34.2336 26.0779C35.141 25.201 36.3717 24.7083 37.655 24.7083C38.9383 24.7083 40.169 25.201 41.0765 26.0779C41.9839 26.9548 42.4937 28.1442 42.4937 29.3843C42.4961 30.6238 43.0066 31.8118 43.9135 32.6882C44.8204 33.5647 46.0497 34.0581 47.3323 34.0604H73.0465ZM110.234 17.6943V22.3703C110.234 24.8506 109.215 27.2293 107.4 28.9832C105.585 30.737 103.124 31.7224 100.557 31.7224H95.7185V36.9215L76.364 30.2421V8.34219C76.364 6.2599 78.9678 5.21656 80.4935 6.68951L84.6184 10.6802H92.7276C94.3773 10.6802 96.3188 11.8375 97.0552 13.2652L98.1378 15.3562H107.815C108.457 15.3562 109.072 15.6026 109.526 16.041C109.98 16.4795 110.234 17.0742 110.234 17.6943ZM93.2992 17.6943C93.2992 17.2318 93.1573 16.7798 92.8915 16.3953C92.6256 16.0108 92.2478 15.7112 91.8057 15.5342C91.3637 15.3573 90.8772 15.311 90.4079 15.4012C89.9386 15.4914 89.5075 15.7141 89.1692 16.041C88.8308 16.368 88.6004 16.7846 88.5071 17.2381C88.4137 17.6917 88.4616 18.1618 88.6447 18.589C88.8279 19.0162 89.1379 19.3813 89.5358 19.6382C89.9337 19.8952 90.4014 20.0323 90.8799 20.0323C91.5215 20.0323 92.1369 19.7859 92.5906 19.3475C93.0443 18.909 93.2992 18.3143 93.2992 17.6943Z" fill="#242424"/>
<path d="M52.3154 47.9272C47.3889 47.9272 42.8386 50.3679 40.0987 54.4344L29.8438 69.6226C28.6369 71.4135 27.9951 73.5196 28.0001 75.673V99.8784C27.9933 101.5 28.534 103.078 29.5363 104.36C30.5385 105.643 31.9448 106.556 33.5313 106.956L43.0967 109.356C43.7846 112.64 45.5915 115.589 48.214 117.709C50.8366 119.829 54.1153 120.991 57.5 121C64.3293 121 70.0302 116.32 71.6748 110.039H106.013C107.657 116.32 113.358 121 120.188 121C127.017 121 132.718 116.32 134.362 110.039H138.625C142.659 110.039 146 106.729 146 102.732V89.3742C145.996 86.1175 144.895 82.9554 142.87 80.3903C140.845 77.8251 138.012 76.004 134.823 75.2163L114.885 70.1926L100.482 53.1812C99.1037 51.5384 97.3779 50.2162 95.4266 49.3082C93.4752 48.4002 91.3462 47.9287 89.1904 47.9272H52.3154ZM52.3154 55.2345H68.5625V69.8491H38.6016L46.2089 58.5447V58.4315C46.877 57.4372 47.7852 56.624 48.8509 56.0657C49.9167 55.5075 51.1063 55.2217 52.3117 55.2345H52.3154ZM75.9375 55.2345H89.1904C91.3771 55.2345 93.4384 56.1918 94.836 57.8615L104.977 69.8491H75.9375V55.2345ZM35.3751 77.1564H112.352L133.094 82.2934C134.685 82.6848 136.097 83.5966 137.101 84.8816C138.105 86.1665 138.642 87.7494 138.625 89.3742V102.732H134.362C132.718 96.4513 127.017 91.771 120.188 91.771C113.358 91.771 107.657 96.4513 106.013 102.732H71.6748C70.0302 96.4513 64.3293 91.771 57.5 91.771C50.9621 91.771 45.4714 96.0531 43.5576 101.932L35.3751 99.8821V77.1564ZM57.5 99.0783C61.619 99.0783 64.875 102.304 64.875 106.386C64.875 110.467 61.619 113.693 57.5 113.693C53.3811 113.693 50.125 110.467 50.125 106.386C50.125 102.304 53.3811 99.0783 57.5 99.0783ZM120.188 99.0783C124.306 99.0783 127.563 102.304 127.563 106.386C127.563 110.467 124.306 113.693 120.188 113.693C116.069 113.693 112.813 110.467 112.813 106.386C112.813 102.304 116.069 99.0783 120.188 99.0783Z" fill="#FFC41E"/>
</svg>
