<svg width="174" height="126" viewBox="0 0 174 126" fill="none" xmlns="http://www.w3.org/2000/svg">
<path d="M48 76.9353V38.1566C48 36.2867 48.7326 34.4933 50.0366 33.1711C51.3407 31.8488 53.1093 31.106 54.9535 31.106V31.106C56.7977 31.106 58.5663 31.8488 59.8703 33.1711C61.1744 34.4933 61.907 36.2867 61.907 38.1566V62.834" stroke="black" stroke-width="4" stroke-linecap="round" stroke-linejoin="round"/>
<path d="M61.9067 63.0657V24.287C61.9067 22.417 62.6712 20.6237 64.0319 19.3014C65.3926 17.9792 67.2382 17.2363 69.1626 17.2363C71.0869 17.2363 72.9325 17.9792 74.2932 19.3014C75.6539 20.6237 76.4184 22.417 76.4184 24.287V59.5404" stroke="black" stroke-width="4" stroke-linecap="round" stroke-linejoin="round"/>
<path d="M90.3257 59.629V27.8646C90.3257 26.0054 91.0901 24.2223 92.4509 22.9077C93.8116 21.5931 95.6571 20.8545 97.5815 20.8545V20.8545C99.5059 20.8545 101.351 21.5931 102.712 22.9077C104.073 24.2223 104.837 26.0054 104.837 27.8646V76.9352" stroke="black" stroke-width="4" stroke-linecap="round" stroke-linejoin="round"/>
<path d="M76.4185 59.4475V17.0639C76.4185 15.1905 77.1511 13.3937 78.4551 12.069C79.7591 10.7442 81.5278 10 83.3719 10C85.2161 10 86.9848 10.7442 88.2888 12.069C89.5928 13.3937 90.3254 15.1905 90.3254 17.0639V59.4475" stroke="black" stroke-width="4" stroke-linecap="round" stroke-linejoin="round"/>
<path d="M48 77.0958C48 103.134 62.1802 116.131 81.678 116.131C101.176 116.131 109.088 107.348 113.583 96.6135L125.262 64.6753C126.738 60.672 126.069 56.9592 122.632 55.0052C119.193 53.0489 114.676 54.0559 112.815 57.5957L104.721 77.0958" stroke="black" stroke-width="4" stroke-linecap="round" stroke-linejoin="round"/>
<path fill-rule="evenodd" clip-rule="evenodd" d="M85.524 80.5057C85.7136 80.5339 85.9051 80.5481 86.0968 80.5481C87.5022 80.5481 88.8678 79.8062 89.9447 78.4588C90.903 77.2593 91.569 75.6447 91.8224 73.9101C92.4215 69.7838 90.5962 66.2189 87.6669 65.7875C87.4773 65.7593 87.2858 65.7451 87.0941 65.7451C85.6905 65.7469 84.3222 66.4879 83.2471 67.8326C82.2878 69.0312 81.6182 70.6476 81.3684 72.3849C80.7693 76.5112 82.5946 80.0761 85.524 80.5057ZM74.6073 80.5482C73.2028 80.5482 71.8363 79.8063 70.7594 78.4589C69.8002 77.2594 69.1305 75.6448 68.8807 73.912C68.2817 69.7839 70.107 66.219 73.0363 65.7894C73.2259 65.7612 73.4174 65.747 73.6091 65.747C75.0127 65.747 76.381 66.488 77.4561 67.8327C78.4153 69.0313 79.085 70.6476 79.3357 72.3832C79.9348 76.5113 78.1095 80.0762 75.1801 80.5058C74.9905 80.534 74.799 80.5482 74.6073 80.5482ZM101.563 77.9083C101.061 76.7179 100.226 75.8596 99.1495 75.4273L99.135 75.4219C98.6448 75.2304 98.123 75.1324 97.5966 75.1331H97.5386C95.0736 75.1701 92.5569 77.2594 91.2773 80.3324C90.3388 82.5797 90.2311 84.9966 90.9895 86.798C91.4908 87.9893 92.327 88.8476 93.4084 89.2799L93.4202 89.2844C93.9104 89.4757 94.4322 89.5737 94.9586 89.5732C97.4472 89.5732 99.9902 87.4839 101.293 84.3703C102.22 82.1257 102.322 79.7106 101.563 77.9083ZM91.7134 91.1626C90.2917 90.3107 88.9478 89.5047 88.07 88.0571C85.6484 84.05 84.1859 81.6312 80.3517 81.6312C76.5174 81.6312 75.0513 84.05 72.6243 88.0571C71.7456 89.505 70.4009 90.3117 68.9763 91.1663L68.9763 91.1663L68.9719 91.169L68.9717 91.1691C67.3365 92.1492 65.647 93.1618 64.9177 95.1544C64.6341 95.8728 64.4913 96.6387 64.4969 97.4107C64.4969 100.655 67.0307 103.295 70.1438 103.295C71.7501 103.295 73.4595 102.74 75.2685 102.153C77.0079 101.588 78.806 101.004 80.3607 101.004C81.9154 101.004 83.709 101.588 85.442 102.153L85.4908 102.168L85.4908 102.168C87.2781 102.746 88.9632 103.291 90.5595 103.291C93.6681 103.291 96.1974 100.652 96.1974 97.4071C96.2 96.6345 96.054 95.8686 95.7676 95.1508C95.0383 93.1566 93.3483 92.1431 91.7142 91.1631L91.7134 91.1626ZM67.296 89.2799L67.2833 89.2844C66.794 89.4757 66.2731 89.5736 65.7476 89.5732C63.2617 89.5732 60.7197 87.483 59.4229 84.373C58.4862 82.1257 58.3795 79.7115 59.1378 77.9065C59.6382 76.7161 60.4735 75.8551 61.5504 75.4264L61.5631 75.4219C62.0532 75.2303 62.5751 75.1323 63.1015 75.1331C65.5874 75.1331 68.1294 77.2233 69.4262 80.3333C70.3629 82.5806 70.4696 84.9948 69.7113 86.7998C69.2108 87.9902 68.3756 88.8476 67.296 89.2799Z" fill="#FFC41E"/>
</svg>
